<?xml version="1.0" encoding="utf-8"?>
<!-- Generator: Adobe Illustrator 19.0.0, SVG Export Plug-In . SVG Version: 6.00 Build 0)  -->
<svg version="1.1" id="Layer_1" xmlns="http://www.w3.org/2000/svg" xmlns:xlink="http://www.w3.org/1999/xlink" x="0px" y="0px"
	 viewBox="0 0 21.9 16.4" style="enable-background:new 0 0 21.9 16.4;" xml:space="preserve">
<style type="text/css">
	.st0{fill:#FFFFFF;}
</style>
<g>
	<defs>
		<rect id="SVGID_1_" x="-262" y="-463.6" width="1440" height="768"/>
	</defs>
	<clipPath id="SVGID_2_">
		<use xlink:href="#SVGID_1_"  style="overflow:visible;"/>
	</clipPath>
</g>
<g>
	<defs>
		<rect id="SVGID_3_" x="-262" y="-463.6" width="1440" height="768"/>
	</defs>
	<clipPath id="SVGID_4_">
		<use xlink:href="#SVGID_3_"  style="overflow:visible;"/>
	</clipPath>
</g>
<path id="XMLID_6_" class="st0" d="M14.2,5l-1.2,1.2c0.5,0.5,0.7,1.1,0.7,1.7c0,0.7-0.2,1.3-0.7,1.7l1.2,1.2C15,10,15.5,9,15.4,7.9
	C15.4,6.8,15,5.8,14.2,5z M0,4.9v6.5h3.2l6.5,4.9V0L3.2,4.9H0z M19.1,0.2l-1.2,1.2c3.1,3.8,3.1,9.3,0,13.1l1.2,1.2
	C22.8,11.2,22.8,4.7,19.1,0.2z M16.5,2.7l-1.2,1.2c2.2,2.2,2.2,5.9,0,8.1l1.2,1.2C19.4,10.2,19.4,5.6,16.5,2.7z"/>
</svg>
